<?xml version="1.0" standalone="no"?><!DOCTYPE svg PUBLIC "-//W3C//DTD SVG 1.1//EN" "http://www.w3.org/Graphics/SVG/1.1/DTD/svg11.dtd"><svg t="1692095525042" class="icon" viewBox="0 0 1024 1024" version="1.1" xmlns="http://www.w3.org/2000/svg" p-id="5365" xmlns:xlink="http://www.w3.org/1999/xlink" width="200" height="200"><path d="M0 0h3.093333L0 3.52V0z" fill="#FDEB78" p-id="5366"></path><path d="M232.533333 156.8C354.56 59.413333 530.986667 23.253333 675.413333 90.986667c-7.68 7.893333-15.36 15.893333-22.826666 24C534.293333 62.4 391.573333 86.826667 284.8 154.666667c-17.386667 0.853333-34.773333 1.493333-52.266667 2.133333z" fill="#ECAF55" p-id="5367"></path><path d="M675.413333 90.986667c58.666667-36.693333 146.346667-1.28 152.746667 70.08-3.093333 38.293333 37.866667 55.68 50.88 87.68-29.973333 6.186667-47.573333-24.96-75.52-29.76-19.306667-4.373333-15.146667-28.693333-21.546667-42.88-5.866667-32.213333-41.92-49.066667-72-42.88-29.653333 9.28-33.173333 56.853333-70.186666 49.706666-6.72-23.893333-2.453333-48.32 12.8-67.946666 7.466667-8.106667 15.146667-16.106667 22.826666-24z" fill="#A43F0E" p-id="5368"></path><path d="M284.8 154.666667c106.773333-67.84 249.493333-92.266667 367.786667-39.68-15.253333 19.626667-19.52 44.053333-12.8 67.946666 37.013333 7.146667 40.533333-40.426667 70.186666-49.706666 30.08-6.186667 66.133333 10.666667 72 42.88 6.4 14.186667 2.24 38.506667 21.546667 42.88 27.946667 4.8 45.546667 35.946667 75.52 29.76 2.133333 1.6 6.4 4.906667 8.533333 6.506666l-2.56 4.053334c-226.24 21.226667-452.16 46.826667-678.506666 66.666666-21.226667-6.933333-43.306667-8.96-65.386667-10.453333 8.426667-17.066667 17.813333-33.6 27.84-49.706667 10.133333 6.08 20.906667 10.56 32.213333 13.546667 10.346667-17.493333 13.12-37.973333 21.333334-56.426667 17.173333-15.68 45.226667-24.746667 66.24-11.413333 14.933333 16 26.026667 43.093333 53.12 35.2 17.493333-42.24-18.24-81.173333-57.066667-92.053333z" fill="#FDEB78" p-id="5369"></path><path d="M169.706667 215.466667c15.466667-24.32 34.986667-48.746667 62.826666-58.666667 17.493333-0.64 34.88-1.28 52.266667-2.133333 38.826667 10.88 74.56 49.813333 57.066667 92.053333-27.093333 7.893333-38.186667-19.2-53.12-35.2-21.013333-13.333333-49.066667-4.266667-66.24 11.413333-8.213333 18.453333-10.986667 38.933333-21.333334 56.426667a123.733333 123.733333 0 0 1-32.213333-13.546667c0.106667-16.746667 0.106667-33.6 0.746667-50.346666z" fill="#A43F0E" p-id="5370"></path><path d="M93.653333 338.666667c18.666667-44.693333 44.48-86.506667 76.053334-123.2-0.64 16.746667-0.64 33.6-0.746667 50.346666-10.026667 16.106667-19.413333 32.64-27.84 49.706667 22.08 1.493333 44.16 3.52 65.386667 10.453333-37.12 7.573333-74.88 12.373333-112.853334 12.693334z" fill="#ECAF55" p-id="5371"></path><path d="M206.506667 325.973333c226.346667-19.84 452.266667-45.44 678.506666-66.666666l11.306667 6.186666-0.533333 12.266667c-0.746667 16.853333-0.853333 33.6-1.173334 50.453333l-24.746666 5.546667c-0.853333 6.506667-2.666667 19.626667-3.52 26.24-15.573333 8.533333-26.56 20.906667-31.253334 38.186667-5.333333 2.56-16 7.786667-21.226666 10.453333-3.626667 10.346667-7.146667 20.693333-10.88 31.04-74.346667 3.733333-149.973333 18.56-223.253334 18.453333l-10.24-26.026666c-5.973333-1.066667-17.92-3.093333-23.893333-4.16-9.813333-12.16-16.106667-28.586667-33.066667-31.893334-23.36-8.96-7.36-41.493333-20.373333-58.56-18.24-0.533333-36.48 1.066667-54.613333 2.986667-0.853333 21.546667 1.386667 43.093333 1.813333 64.64-6.72 1.813333-20.373333 5.333333-27.2 7.146667-2.24 10.24-5.12 20.266667-8.533333 30.08-6.08 2.346667-18.133333 7.146667-24.213334 9.493333 0.426667 11.093333-1.493333 21.44-5.866666 30.933333-9.386667 1.173333-28.266667 3.733333-37.76 5.013334-50.24 4.8-101.333333 9.706667-151.68 7.04-5.333333-26.986667-40.533333-23.253333-44.8-51.093334-14.72-6.4-31.146667-9.386667-42.24-22.186666-2.773333-1.706667-8.533333-5.333333-11.413334-7.04-4.373333 2.346667-13.226667 6.933333-17.6 9.28-3.84-27.84-5.866667-55.893333-4.693333-83.946667 7.573333-0.32 22.72-0.853333 30.293333-1.173333 37.973333-0.32 75.733333-5.12 112.853334-12.693334m592.32-26.026666c-0.64 8.64-1.813333 26.026667-2.453334 34.666666 8.746667-0.426667 26.346667-1.386667 35.2-1.813333-0.426667-8.106667-1.066667-24.426667-1.493333-32.533333-7.786667 0-23.36-0.213333-31.253333-0.32m-61.44 13.226666c-16.96 11.413333 3.2 35.733333 18.453333 24.213334 17.386667-10.773333-3.306667-36.693333-18.453333-24.213334m25.706666 24.64c1.6 8.426667 4.693333 25.386667 6.293334 33.92 7.253333 0 21.653333 0.213333 28.906666 0.213334 0.96-8.533333 2.88-25.6 3.946667-34.133334h-39.146667m-462.613333 13.013334c-0.213333 8.213333-0.746667 24.853333-1.066667 33.066666-20.16-0.96-39.253333 14.186667-24.64 34.666667 22.826667 14.613333 30.4-8.533333 31.68-26.56 6.4-2.133333 19.413333-6.506667 25.813334-8.746667 0.32-8 0.746667-24 0.96-32l-32.746667-0.426666m73.813333 2.133333c-5.973333 17.386667-0.106667 23.466667 17.706667 18.133333 5.866667-17.6 0-23.68-17.706667-18.133333m331.946667 0c-13.12 15.36 14.186667 34.666667 24.533333 17.386667 12.693333-15.146667-13.973333-34.133333-24.533333-17.386667m24.533333 17.386667c1.386667 9.066667 4.373333 27.093333 5.866667 36.053333 8.32 0.106667 24.96 0.32 33.28 0.32-0.106667-8.746667-0.426667-26.24-0.533333-34.986667-9.6-0.32-29.013333-1.066667-38.613334-1.386666m-386.346666 40.746666c15.04 13.12 35.093333-13.866667 17.813333-24.32-15.466667-11.626667-35.2 13.546667-17.813333 24.32m327.466666-29.226666l1.706667 33.28c7.04-0.213333 21.12-0.533333 28.16-0.64 1.386667-8.853333 4.053333-26.453333 5.44-35.2l-35.306667 2.56m-433.173333 50.133333c0 5.76-0.106667 17.173333-0.106667 22.933333 11.946667 2.026667 23.893333 2.453333 36.053334 1.386667 2.56-12.8 2.56-25.28 0.106666-37.76-13.013333 1.386667-26.88 2.986667-36.053333 13.44m66.24-17.706667c0.853333 8.853333 2.773333 26.346667 3.626667 35.093334H341.333333c0.746667-9.493333 2.346667-28.693333 3.093334-38.293334-9.92 0.853333-29.653333 2.453333-39.466667 3.2z" fill="#1F1F1F" p-id="5372"></path><path d="M895.786667 277.76c37.013333 43.52 48.106667 103.68 65.386666 157.226667 19.946667 87.36-1.92 176-32.213333 258.133333-7.466667 19.2-15.68 38.293333-27.733333 55.04l-3.626667 0.426667-12.373333-2.56-0.213334-8.426667c25.28-70.826667 67.52-142.4 53.546667-220.373333-0.213333-65.6-18.346667-129.066667-43.946667-189.013334 0.32-16.853333 0.426667-33.6 1.173334-50.453333z" fill="#ECAF55" p-id="5373"></path><path d="M798.826667 299.946667c7.893333 0.106667 23.466667 0.32 31.253333 0.32 0.426667 8.106667 1.066667 24.426667 1.493333 32.533333-8.853333 0.426667-26.453333 1.386667-35.2 1.813333 0.64-8.64 1.813333-26.026667 2.453334-34.666666zM737.386667 313.173333c15.146667-12.48 35.84 13.44 18.453333 24.213334-15.253333 11.52-35.413333-12.8-18.453333-24.213334z" fill="#858585" p-id="5374"></path><path d="M869.866667 333.76l24.746666-5.546667c25.6 59.946667 43.733333 123.413333 43.946667 189.013334-61.013333 58.24-138.88 90.346667-211.946667 130.026666-1.173333-24.746667 12.266667-55.466667-10.88-73.493333-12.693333-21.76-17.493333-53.333333-44.373333-62.4-19.84 0.64-33.92 16.533333-39.466667 34.346667-20.373333 52.373333-65.386667 92.053333-116.8 112.853333-2.88-4.16-8.533333-12.586667-11.413333-16.853333 16.32-12.48 54.186667-14.933333 42.026667-43.2-43.093333-21.546667-89.386667-37.226667-126.506667-69.226667-23.466667-23.466667-63.146667-13.973333-83.413333-41.493333 9.493333-1.28 28.373333-3.84 37.76-5.013334 4.373333-9.493333 6.293333-19.84 5.866666-30.933333 6.08-2.346667 18.133333-7.146667 24.213334-9.493333 3.413333-9.813333 6.293333-19.84 8.533333-30.08 6.826667-1.813333 20.48-5.333333 27.2-7.146667-0.426667-21.546667-2.666667-43.093333-1.813333-64.64 18.133333-1.92 36.373333-3.52 54.613333-2.986667 13.013333 17.066667-2.986667 49.6 20.373333 58.56 16.96 3.306667 23.253333 19.733333 33.066667 31.893334 5.973333 1.066667 17.92 3.093333 23.893333 4.16l10.24 26.026666c73.28 0.106667 148.906667-14.72 223.253334-18.453333 3.733333-10.346667 7.253333-20.693333 10.88-31.04 5.226667-2.666667 15.893333-7.893333 21.226666-10.453333 4.693333-17.28 15.68-29.653333 31.253334-38.186667 0.853333-6.613333 2.666667-19.733333 3.52-26.24z" fill="#FDEB78" p-id="5375"></path><path d="M763.093333 337.813333h39.146667c-1.066667 8.533333-2.986667 25.6-3.946667 34.133334-7.253333 0-21.653333-0.213333-28.906666-0.213334-1.6-8.533333-4.693333-25.493333-6.293334-33.92zM300.48 350.826667l32.746667 0.426666c-0.213333 8-0.64 24-0.96 32-6.4 2.24-19.413333 6.613333-25.813334 8.746667-1.28 18.026667-8.853333 41.173333-31.68 26.56-14.613333-20.48 4.48-35.626667 24.64-34.666667 0.32-8.213333 0.853333-24.853333 1.066667-33.066666zM374.293333 352.96c17.706667-5.546667 23.573333 0.533333 17.706667 18.133333-17.813333 5.333333-23.68-0.746667-17.706667-18.133333zM706.24 352.96c10.56-16.746667 37.226667 2.24 24.533333 17.386667-10.346667 17.28-37.653333-2.026667-24.533333-17.386667z" fill="#858585" p-id="5376"></path><path d="M730.773333 370.346667c9.6 0.32 29.013333 1.066667 38.613334 1.386666 0.106667 8.746667 0.426667 26.24 0.533333 34.986667-8.32 0-24.96-0.213333-33.28-0.32-1.493333-8.96-4.48-26.986667-5.866667-36.053333zM344.426667 411.093333c-17.386667-10.773333 2.346667-35.946667 17.813333-24.32 17.28 10.453333-2.773333 37.44-17.813333 24.32zM671.893333 381.866667l35.306667-2.56c-1.386667 8.746667-4.053333 26.346667-5.44 35.2-7.04 0.106667-21.12 0.426667-28.16 0.64l-1.706667-33.28z" fill="#858585" p-id="5377"></path><path d="M68.053333 423.786667c4.373333-2.346667 13.226667-6.933333 17.6-9.28 2.88 1.706667 8.64 5.333333 11.413334 7.04-23.893333 40.64-14.506667 89.066667-14.613334 133.653333 8.426667 77.76 33.92 157.866667 89.493334 215.146667-2.346667 3.413333-6.933333 10.453333-9.28 13.973333-9.28-9.6-19.84-17.066667-31.68-22.613333-6.08-10.88-12.266667-21.76-17.92-32.853334-47.36-93.333333-67.2-202.026667-45.013334-305.066666z" fill="#ECAF55" p-id="5378"></path><path d="M238.72 432c9.173333-10.453333 23.04-12.053333 36.053333-13.44 2.453333 12.48 2.453333 24.96-0.106666 37.76-12.16 1.066667-24.106667 0.64-36.053334-1.386667 0-5.76 0.106667-17.173333 0.106667-22.933333zM304.96 414.293333c9.813333-0.746667 29.546667-2.346667 39.466667-3.2-0.746667 9.6-2.346667 28.8-3.093334 38.293334h-32.746666c-0.853333-8.746667-2.773333-26.24-3.626667-35.093334z" fill="#858585" p-id="5379"></path><path d="M97.066667 421.546667c11.093333 12.8 27.52 15.786667 42.24 22.186666 4.266667 27.84 39.466667 24.106667 44.8 51.093334 10.773333 2.24 21.226667 5.653333 31.253333 10.24-0.96 11.946667-5.546667 24-2.986667 36.16 33.28 36.8 48.746667 86.826667 90.666667 115.84 5.333333 24.533333-1.813333 52.906667 15.36 73.6 4.8-4.266667 14.186667-12.8 18.88-17.066667 16.533333 25.493333 35.306667 50.026667 58.773333 69.76 77.76 57.066667 191.466667 50.666667 260.48-17.6 13.12-10.88 21.866667-25.813333 31.04-40 6.613333-10.773333 12.48-21.973333 17.173334-33.706667 13.546667-37.973333 13.333333-78.613333 10.986666-118.293333 23.146667 18.026667 9.706667 48.746667 10.88 73.493333 73.066667-39.68 150.933333-71.786667 211.946667-130.026666 13.973333 77.973333-28.266667 149.546667-53.546667 220.373333-14.4-8.213333-30.933333-2.666667-43.2 6.293333-14.826667 2.24-21.866667 10.773333-21.013333 25.706667-22.613333-1.386667-60.373333 28.053333-18.133333 32.32l-0.213334 9.6c-20.48 0.853333-42.773333-2.133333-61.973333 5.973333-1.173333 1.066667-3.52 3.093333-4.693333 4.053334l-3.84 3.84c-37.226667-4.16-64.853333 23.466667-99.413334 29.013333-22.613333 5.76-58.986667 1.813333-47.36 36.693333l-13.12-0.426666-2.666666-0.426667c-4.053333-7.36-11.946667-21.973333-15.893334-29.226667-30.08-0.533333-58.56 12.053333-87.893333 16.96-4.48-3.733333-13.333333-11.306667-17.706667-15.146666-7.893333-11.84-18.56-15.146667-32.106666-9.813334-69.866667-5.013333-129.066667-45.653333-187.52-79.36-15.146667-19.413333-37.546667-12.586667-56.32-3.306666-55.573333-57.28-81.066667-137.386667-89.493334-215.146667 0.106667-44.586667-9.28-93.013333 14.613334-133.653333z" fill="#FFCD73" p-id="5380"></path><path d="M184.106667 494.826667c50.346667 2.666667 101.44-2.24 151.68-7.04 20.266667 27.52 59.946667 18.026667 83.413333 41.493333 37.12 32 83.413333 47.68 126.506667 69.226667 12.16 28.266667-25.706667 30.72-42.026667 43.2 2.88 4.266667 8.533333 12.693333 11.413333 16.853333-52.8 33.28-114.453333 9.813333-171.2 15.68-5.12 12.48-7.253333 25.6-6.613333 39.36-4.693333 4.266667-14.08 12.8-18.88 17.066667-17.173333-20.693333-10.026667-49.066667-15.36-73.6-41.92-29.013333-57.386667-79.04-90.666667-115.84-2.56-12.16 2.026667-24.213333 2.986667-36.16-10.026667-4.586667-20.48-8-31.253333-10.24z" fill="#FEDC76" p-id="5381"></path><path d="M631.893333 545.706667c5.546667-17.813333 19.626667-33.706667 39.466667-34.346667 26.88 9.066667 31.68 40.64 44.373333 62.4 2.346667 39.68 2.56 80.32-10.986666 118.293333-72.426667-34.56-160.213333-21.76-228.48 16.96-18.24 8.32-30.293333 24.853333-42.346667 40.106667-10.88 13.226667-23.253333 25.28-37.866667 34.24-23.466667-19.733333-42.24-44.266667-58.773333-69.76-0.64-13.76 1.493333-26.88 6.613333-39.36 56.746667-5.866667 118.4 17.6 171.2-15.68 51.413333-20.8 96.426667-60.48 116.8-112.853333z" fill="#7D180F" p-id="5382"></path><path d="M476.266667 709.013333c68.266667-38.72 156.053333-51.52 228.48-16.96-4.693333 11.733333-10.56 22.933333-17.173334 33.706667-67.733333-26.56-143.253333 6.293333-211.306666-16.746667z" fill="#E8674D" p-id="5383"></path><path d="M928.96 693.12c14.506667 26.666667 1.173333 58.88-18.453333 79.146667-7.786667 15.786667-2.666667 51.093333-27.946667 48.426666-3.946667 0.64-11.84 1.813333-15.786667 2.453334-1.066667 3.626667-3.413333 10.773333-4.48 14.4l-11.84 20.373333-10.773333-7.786667c0.64-4.906667 1.706667-14.826667 2.346667-19.733333l-1.28-7.36-8.533334-4.8c-2.666667-0.96-8-2.773333-10.666666-3.733333l-19.093334-2.986667 0.213334-9.6c1.493333-1.92 4.586667-5.76 6.08-7.68 2.986667-6.186667 9.066667-18.453333 12.053333-24.64 14.933333-2.24 21.973333-10.773333 21.013333-25.706667 14.186667 4.8 28.693333 5.546667 43.413334 2.133334l12.373333 2.56c0.746667 0.213333 2.24 0.533333 2.986667 0.746666l0.64-1.173333c12.053333-16.746667 20.266667-35.84 27.733333-55.04m-78.506667 77.12c-21.546667-13.44-21.546667 34.666667 0.533334 18.88 3.626667 3.093333 10.773333 9.386667 14.293333 12.48 2.453333 1.813333 7.36 5.226667 9.813333 6.933333 2.026667-2.346667 6.293333-7.146667 8.32-9.493333 17.493333 2.56 15.786667-32.32-1.066666-31.04-1.6-1.92-4.8-5.653333-6.4-7.573333l-25.493334 9.813333z" fill="#FDEB78" p-id="5384"></path><path d="M433.92 749.12c12.053333-15.253333 24.106667-31.786667 42.346667-40.106667 68.053333 23.04 143.573333-9.813333 211.306666 16.746667-9.173333 14.186667-17.92 29.12-31.04 40-72.96-18.56-152.853333 13.44-222.613333-16.64z" fill="#E45B34" p-id="5385"></path><path d="M113.066667 728.853333c5.653333 11.093333 11.84 21.973333 17.92 32.853334-8.64 20.48 20.693333 51.626667 31.68 22.613333 2.346667-3.52 6.933333-10.56 9.28-13.973333 18.773333-9.28 41.173333-16.106667 56.32 3.306666 58.453333 33.706667 117.653333 74.346667 187.52 79.36 7.146667 13.653333 17.813333 16.96 32.106666 9.813334 4.373333 3.84 13.226667 11.413333 17.706667 15.146666 30.72 18.346667 69.44 21.546667 103.786667 12.266667l2.666666 0.426667 13.12 0.426666c39.893333-1.6 75.626667-20.8 113.813334-30.506666 18.88-2.026667 23.36-22.4 32.96-35.2l3.84-3.84c1.173333-0.96 3.52-2.986667 4.693333-4.053334 19.2-8.106667 41.493333-5.12 61.973333-5.973333 1.493333 12.906667 6.293333 25.92 17.6 33.493333 2.453333 1.066667 7.573333 3.2 10.133334 4.373334l9.493333 0.746666 10.133333 10.346667c-21.013333 13.653333-42.56 27.306667-63.253333 39.36l-8.106667-4.16-0.106666 8.106667c-25.173333 11.093333-47.786667 29.546667-76.373334 30.613333-21.44 30.186667-62.293333 10.24-82.986666 41.28-32.426667-6.506667-64.853333 3.413333-96.426667-4.373333-33.28 29.44-58.666667-24.746667-95.253333-15.146667-48.853333-8.426667-100.053333-21.973333-140.373334-49.706667 14.826667 7.04 35.413333-0.213333 36.266667-18.133333 8.64-10.88 18.346667-21.333333 22.186667-34.986667-10.026667-17.28-29.226667-15.146667-46.08-13.333333-0.64 14.08-0.746667 28.053333-0.533334 42.026667-2.986667 6.08-8.853333 18.346667-11.84 24.426666-22.4-7.893333-45.546667-15.68-60.8-35.2-44.16 4.693333-55.04-46.613333-93.226666-54.826666-25.493333-19.733333-38.72-58.986667-19.84-87.573334m78.506666 59.626667l-11.093333-0.106667c-8.426667 29.12 13.333333 66.56 47.04 58.026667l-6.826667-36.373333c16.426667-18.133333-20.693333-46.72-29.12-21.546667m51.093334 19.306667c-2.24 23.04-4.906667 49.706667 12.48 67.946666 4.693333-2.88 14.08-8.746667 18.773333-11.626666 13.12 11.2 17.493333 7.68 13.226667-10.453334 19.626667-31.893333-13.973333-57.706667-44.48-45.866666m528.106666 24.64c-26.986667 0.106667-15.786667 41.706667 7.253334 31.573333l1.92 7.253333c15.466667 13.546667 29.12-20.8 8.213333-20.8l-2.666667-9.066666c-1.92-1.92-5.866667-5.973333-7.786666-7.893334-1.706667-0.32-5.226667-0.853333-6.933334-1.066666m-68.8 62.4c5.973333 0.533333 17.813333 1.706667 23.68 2.24-18.88 19.626667 27.733333 19.306667 8.96-0.213334 4.693333-1.386667 14.08-4.053333 18.773334-5.44 36.8-54.506667-69.653333-42.56-51.413334 3.413334m-328.213333-33.813334c-21.44 10.24-14.08 36.266667-13.12 54.933334 20.48-3.626667 43.093333 8.96 59.626667-9.386667 6.4-27.306667-18.453333-54.826667-46.506667-45.546667m62.08 24.213334c-7.786667 14.08-17.28 28.16-20.053333 44.373333 0.32 1.386667 0.746667 4.266667 1.066666 5.653333 7.786667 1.28 23.466667 3.946667 31.36 5.226667 10.666667-17.066667 18.026667-37.12 10.026667-56.853333-5.653333 0.426667-16.746667 1.173333-22.4 1.6-7.04-4.906667-7.04-4.906667 0 0m189.12 33.386666l25.28 1.706667c-9.6 19.52 32.213333 25.493333 33.6 5.226667 4.586667-2.666667 13.76-8.106667 18.346667-10.88-4.586667 0.853333-13.866667 2.453333-18.453334 3.2-2.88-12.053333-6.506667-23.893333-10.986666-35.52-20.373333 1.493333-43.946667 14.826667-47.786667 36.266666m-171.413333 19.626667c7.466667 2.88 22.506667 8.533333 30.08 11.413333h5.653333c22.4-5.76 31.253333-32.533333 24-53.12-29.973333-8.426667-48.64 18.453333-59.733333 41.706667m65.28-21.866667c0.64 7.573333 2.133333 22.613333 2.773333 30.08-26.56 13.76 34.24 26.346667 30.933333 3.733334l24.32 0.426666c16.106667-34.346667-35.413333-49.706667-58.026666-34.24m67.626666-10.666666c-4.906667 14.4-4.373333 28.48 1.813334 42.346666-5.653333 18.133333 34.453333 18.56 28.586666 0.213334l13.226667 0.213333c9.92-24.213333-19.626667-52.693333-43.626667-42.773333m115.733334 8.96c7.893333-6.186667 7.893333-6.186667 0 0m-341.546667 1.28c-3.84 7.573333-3.84 7.573333 0 0z" fill="#FDEB78" p-id="5386"></path><path d="M841.813333 743.893333c12.266667-8.96 28.8-14.506667 43.2-6.293333l0.213334 8.426667c-14.72 3.413333-29.226667 2.666667-43.413334-2.133334z" fill="#FEDC76" p-id="5387"></path><path d="M396.053333 783.36c14.613333-8.96 26.986667-21.013333 37.866667-34.24 69.76 30.08 149.653333-1.92 222.613333 16.64-69.013333 68.266667-182.72 74.666667-260.48 17.6z" fill="#E04E1C" p-id="5388"></path><path d="M820.8 769.6c-0.853333-14.933333 6.186667-23.466667 21.013333-25.706667 0.96 14.933333-6.08 23.466667-21.013333 25.706667zM897.6 748.586667l3.626667-0.426667-0.64 1.173333c-0.746667-0.213333-2.24-0.533333-2.986667-0.746666z" fill="#FEDC76" p-id="5389"></path><path d="M850.453333 770.24l25.493334-9.813333c1.6 1.92 4.8 5.653333 6.4 7.573333l-2.133334 6.4c-12.266667 4.266667-17.28 13.333333-14.933333 27.2-3.52-3.093333-10.666667-9.386667-14.293333-12.48-0.106667-4.8-0.426667-14.186667-0.533334-18.88z" fill="#ECAF55" p-id="5390"></path><path d="M875.946667 760.426667c1.6 1.92 4.8 5.653333 6.4 7.573333-1.6-1.92-4.8-5.653333-6.4-7.573333zM802.666667 801.92c-42.24-4.266667-4.48-33.706667 18.133333-32.32-2.986667 6.186667-9.066667 18.453333-12.053333 24.64-1.493333 1.92-4.586667 5.76-6.08 7.68zM850.986667 789.12c-22.08 15.786667-22.08-32.32-0.533334-18.88 0.106667 4.693333 0.426667 14.08 0.533334 18.88zM882.346667 768c16.853333-1.28 18.56 33.6 1.066666 31.04-0.746667-6.186667-2.346667-18.56-3.2-24.64l2.133334-6.4z" fill="#FEDC76" p-id="5391"></path><path d="M191.573333 788.48c8.426667-25.173333 45.546667 3.413333 29.12 21.546667-9.92-6.933333-19.626667-14.08-29.12-21.546667z" fill="#FFCD73" p-id="5392"></path><path d="M180.48 788.373333l11.093333 0.106667c9.493333 7.466667 19.2 14.613333 29.12 21.546667l6.826667 36.373333c-33.706667 8.533333-55.466667-28.906667-47.04-58.026667z" fill="#ECAF55" p-id="5393"></path><path d="M802.666667 801.92c1.493333-1.92 4.586667-5.76 6.08-7.68-1.493333 1.92-4.586667 5.76-6.08 7.68z" fill="#FFCD73" p-id="5394"></path><path d="M865.28 801.6l9.386667 1.813333 0.426666 5.12c-2.453333-1.706667-7.36-5.12-9.813333-6.933333z" fill="#ECAF55" p-id="5395"></path><path d="M874.666667 803.413333l8.746666-4.373333c-2.026667 2.346667-6.293333 7.146667-8.32 9.493333l-0.426666-5.12z" fill="#FEDC76" p-id="5396"></path><path d="M242.666667 807.786667c30.506667-11.84 64.106667 13.973333 44.48 45.866666-3.306667 2.56-9.92 7.786667-13.226667 10.453334-4.693333 2.88-14.08 8.746667-18.773333 11.626666-17.386667-18.24-14.72-44.906667-12.48-67.946666z" fill="#FFCD73" p-id="5397"></path><path d="M735.786667 821.546667z" fill="#FEDC76" p-id="5398"></path><path d="M802.453333 811.52l19.093334 2.986667c2.666667 0.96 8 2.773333 10.666666 3.733333l8.533334 4.8 1.28 7.36c-3.84 2.986667-11.306667 9.066667-15.04 12.053333l-6.933334 2.56c-11.306667-7.573333-16.106667-20.586667-17.6-33.493333z" fill="#FFCD73" p-id="5399"></path><path d="M821.546667 814.506667c2.666667 0.96 8 2.773333 10.666666 3.733333-2.666667-0.96-8-2.773333-10.666666-3.733333zM731.946667 825.386667l3.84-3.84-3.84 3.84zM770.773333 832.426667c1.706667 0.213333 5.226667 0.746667 6.933334 1.066666l-6.933334-1.066666zM840.746667 823.04l1.28 7.36-1.28-7.36zM866.773333 823.146667c3.946667-0.64 11.84-1.813333 15.786667-2.453334 3.413333 15.466667-3.413333 21.12-20.266667 16.853334 1.066667-3.626667 3.413333-10.773333 4.48-14.4zM632.533333 854.4c34.56-5.546667 62.186667-33.173333 99.413334-29.013333-9.6 12.8-14.08 33.173333-32.96 35.2-38.186667 9.706667-73.92 28.906667-113.813334 30.506666-11.626667-34.88 24.746667-30.933333 47.36-36.693333z" fill="#FEDC76" p-id="5400"></path><path d="M778.026667 864c-23.04 10.133333-34.24-31.466667-7.253334-31.573333l6.933334 1.066666c1.92 1.92 5.866667 5.973333 7.786666 7.893334l2.666667 9.066666c-2.56 3.413333-7.573333 10.24-10.133333 13.546667z" fill="#FFCD73" p-id="5401"></path><path d="M777.706667 833.493333c1.92 1.92 5.866667 5.973333 7.786666 7.893334-1.92-1.92-5.866667-5.973333-7.786666-7.893334zM826.986667 842.453333c3.733333-2.986667 11.2-9.066667 15.04-12.053333-0.64 4.906667-1.706667 14.826667-2.346667 19.733333l-9.493333-0.746666-3.2-6.933334z" fill="#FEDC76" p-id="5402"></path><path d="M299.306667 840c16.853333-1.813333 36.053333-3.946667 46.08 13.333333-3.84 13.653333-13.546667 24.106667-22.186667 34.986667-6.08-1.6-18.346667-4.693333-24.426667-6.293333-0.213333-13.973333-0.106667-27.946667 0.533334-42.026667z" fill="#FFCD73" p-id="5403"></path><path d="M820.053333 845.013333l6.933334-2.56 3.2 6.933334c-2.56-1.173333-7.68-3.306667-10.133334-4.373334z" fill="#B58D4A" opacity=".97" p-id="5404"></path><path d="M273.92 864.106667c3.306667-2.666667 9.92-7.893333 13.226667-10.453334 4.266667 18.133333-0.106667 21.653333-13.226667 10.453334zM415.786667 853.013333c13.546667-5.333333 24.213333-2.026667 32.106666 9.813334-14.293333 7.146667-24.96 3.84-32.106666-9.813334z" fill="#FEDC76" p-id="5405"></path><path d="M701.973333 894.826667c-18.24-45.973333 88.213333-57.92 51.413334-3.413334-4.693333 1.386667-14.08 4.053333-18.773334 5.44l-8.96 0.213334c-5.866667-0.533333-17.706667-1.706667-23.68-2.24z" fill="#FFCD73" p-id="5406"></path><path d="M788.16 850.453333c20.906667 0 7.253333 34.346667-8.213333 20.8l-1.92-7.253333c2.56-3.306667 7.573333-10.133333 10.133333-13.546667z" fill="#FEDC76" p-id="5407"></path><path d="M373.76 861.013333c28.053333-9.28 52.906667 18.24 46.506667 45.546667-16.533333 18.346667-39.146667 5.76-59.626667 9.386667-0.96-18.666667-8.32-44.693333 13.12-54.933334z" fill="#FFCD73" p-id="5408"></path><path d="M465.6 877.973333c29.333333-4.906667 57.813333-17.493333 87.893333-16.96 3.946667 7.253333 11.84 21.866667 15.893334 29.226667-34.346667 9.28-73.066667 6.08-103.786667-12.266667z" fill="#FEDC76" p-id="5409"></path><path d="M435.84 885.226667c-7.04-4.906667-7.04-4.906667 0 0z" fill="#FFCD73" p-id="5410"></path><path d="M286.933333 906.453333c2.986667-6.08 8.853333-18.346667 11.84-24.426666 6.08 1.6 18.346667 4.693333 24.426667 6.293333-0.853333 17.92-21.44 25.173333-36.266667 18.133333z" fill="#FEDC76" p-id="5411"></path><path d="M435.84 885.226667c5.653333-0.426667 16.746667-1.173333 22.4-1.6 8 19.733333 0.64 39.786667-10.026667 56.853333-7.893333-1.28-23.573333-3.946667-31.36-5.226667l-1.066666-5.653333c2.773333-16.213333 12.266667-30.293333 20.053333-44.373333z" fill="#FFCD73" p-id="5412"></path><path d="M569.386667 890.24l2.666666 0.426667-2.666666-0.426667z" fill="#FEDC76" p-id="5413"></path><path d="M624.96 918.613333c3.84-21.44 27.413333-34.773333 47.786667-36.266666 4.48 11.626667 8.106667 23.466667 10.986666 35.52l0.106667 7.68c-10.986667-3.306667-22.186667-5.013333-33.6-5.226667l-25.28-1.706667z" fill="#FFCD73" p-id="5414"></path><path d="M773.76 890.026667z" fill="#FEDC76" p-id="5415"></path><path d="M453.546667 938.24c11.093333-23.253333 29.76-50.133333 59.733333-41.706667 7.253333 20.586667-1.6 47.36-24 53.12h-5.653333c-7.573333-2.88-22.613333-8.533333-30.08-11.413333z" fill="#FFCD73" p-id="5416"></path><path d="M725.653333 897.066667l8.96-0.213334c18.773333 19.52-27.84 19.84-8.96 0.213334zM778.453333 895.68l8.106667 4.16c-2.026667 0.96-6.08 2.986667-8.213333 3.946667l0.106666-8.106667z" fill="#FEDC76" p-id="5417"></path><path d="M518.826667 916.373333c22.613333-15.466667 74.133333-0.106667 58.026666 34.24l-24.32-0.426666c-7.68-0.96-23.146667-2.773333-30.933333-3.733334-0.64-7.466667-2.133333-22.506667-2.773333-30.08z" fill="#FFCD73" p-id="5418"></path><path d="M586.453333 905.706667c24-9.92 53.546667 18.56 43.626667 42.773333l-13.226667-0.213333c-7.146667-0.106667-21.44-0.213333-28.586666-0.213334-6.186667-13.866667-6.72-27.946667-1.813334-42.346666z" fill="#FFCD73" p-id="5419"></path><path d="M702.186667 914.666667c7.893333-6.186667 7.893333-6.186667 0 0zM360.64 915.946667c-3.84 7.573333-3.84 7.573333 0 0zM650.24 920.32c11.413333 0.213333 22.613333 1.92 33.6 5.226667-1.386667 20.266667-43.2 14.293333-33.6-5.226667zM683.733333 917.866667c4.586667-0.746667 13.866667-2.346667 18.453334-3.2-4.586667 2.773333-13.76 8.213333-18.346667 10.88l-0.106667-7.68zM416.853333 935.253333c-0.32-1.386667-0.746667-4.266667-1.066666-5.653333l1.066666 5.653333zM483.626667 949.653333h5.653333-5.653333zM552.533333 950.186667c3.306667 22.613333-57.493333 10.026667-30.933333-3.733334 7.786667 0.96 23.253333 2.773333 30.933333 3.733334zM588.266667 948.053333c7.146667 0 21.44 0.106667 28.586666 0.213334 5.866667 18.346667-34.24 17.92-28.586666-0.213334z" fill="#FEDC76" p-id="5420"></path></svg>